<svg width="58" height="70" viewBox="0 0 58 70" fill="none" xmlns="http://www.w3.org/2000/svg">
<path d="M0 8.23649C0 3.6876 3.6876 0 8.23649 0H41.1825C45.7315 0 49.4189 3.6876 49.4189 8.23649V48.9371L45.3007 53.0965V8.23649C45.3007 5.96207 43.457 4.11825 41.1825 4.11825H8.23649C5.96207 4.11825 4.11825 5.96207 4.11825 8.23649V57.6554C4.11825 59.93 5.96207 61.7737 8.23649 61.7737H25.0612C25.3519 62.5982 25.8235 63.3736 26.4758 64.0391L28.2923 65.8919H8.23649C3.6876 65.8919 0 62.2045 0 57.6554V8.23649Z" fill="#212121"/>
<path d="M16.4728 14.4139C16.4728 16.6883 14.629 18.5321 12.3546 18.5321C10.0801 18.5321 8.23633 16.6883 8.23633 14.4139C8.23633 12.1395 10.0801 10.2957 12.3546 10.2957C14.629 10.2957 16.4728 12.1395 16.4728 14.4139Z" fill="#212121"/>
<path d="M22.6499 12.3546C21.5127 12.3546 20.5908 13.2765 20.5908 14.4137C20.5908 15.5509 21.5127 16.4729 22.6499 16.4729H39.1229C40.26 16.4729 41.182 15.5509 41.182 14.4137C41.182 13.2765 40.26 12.3546 39.1229 12.3546H22.6499Z" fill="#212121"/>
<path d="M22.6499 28.8277C21.5127 28.8277 20.5908 29.7496 20.5908 30.8868C20.5908 32.024 21.5127 32.9459 22.6499 32.9459H39.1229C40.26 32.9459 41.182 32.024 41.182 30.8868C41.182 29.7496 40.26 28.8277 39.1229 28.8277H22.6499Z" fill="#212121"/>
<path d="M20.5908 47.3598C20.5908 46.2228 21.5127 45.3007 22.6499 45.3007H39.1229C40.26 45.3007 41.182 46.2228 41.182 47.3598C41.182 48.4969 40.26 49.419 39.1229 49.419H22.6499C21.5127 49.419 20.5908 48.4969 20.5908 47.3598Z" fill="#212121"/>
<path d="M12.3546 35.0052C14.629 35.0052 16.4728 33.1614 16.4728 30.8869C16.4728 28.6125 14.629 26.7687 12.3546 26.7687C10.0801 26.7687 8.23633 28.6125 8.23633 30.8869C8.23633 33.1614 10.0801 35.0052 12.3546 35.0052Z" fill="#212121"/>
<path d="M12.3546 51.4781C14.629 51.4781 16.4728 49.6343 16.4728 47.3598C16.4728 45.0853 14.629 43.2416 12.3546 43.2416C10.0801 43.2416 8.23633 45.0853 8.23633 47.3598C8.23633 49.6343 10.0801 51.4781 12.3546 51.4781Z" fill="#212121"/>
<path d="M57.0599 52.9269C57.8601 52.1189 57.8535 50.8151 57.0455 50.0149C56.2375 49.2147 54.9337 49.2213 54.1335 50.0293L39.1312 65.182L32.3575 58.2732C31.5614 57.4611 30.2576 57.4479 29.4459 58.2444C28.6337 59.0404 28.6206 60.3443 29.417 61.156L37.3607 69.259C38.326 70.2437 39.9107 70.2474 40.881 69.2677L57.0599 52.9269Z" fill="#212121"/>
</svg>
