<svg width="82" height="70" viewBox="0 0 82 70" fill="none" xmlns="http://www.w3.org/2000/svg">
<path d="M29.1826 11.657C29.1826 5.21902 34.4016 0 40.8396 0C47.2776 0 52.4966 5.21902 52.4966 11.657C52.4966 18.0949 47.2776 23.314 40.8396 23.314C34.4016 23.314 29.1826 18.0949 29.1826 11.657ZM40.8396 5.83431C37.6238 5.83431 35.0169 8.4412 35.0169 11.657C35.0169 14.8728 37.6238 17.4797 40.8396 17.4797C44.0554 17.4797 46.6623 14.8728 46.6623 11.657C46.6623 8.4412 44.0554 5.83431 40.8396 5.83431Z" fill="#212121"/>
<path d="M58.3433 14.574C58.3433 9.74072 62.2616 5.82257 67.0947 5.82257C71.9279 5.82257 75.8462 9.74072 75.8462 14.574C75.8462 19.4074 71.9279 23.3255 67.0947 23.3255C62.2616 23.3255 58.3433 19.4074 58.3433 14.574ZM67.0947 11.6569C65.4839 11.6569 64.1776 12.9629 64.1776 14.574C64.1776 16.1851 65.4839 17.4912 67.0947 17.4912C68.7056 17.4912 70.0119 16.1851 70.0119 14.574C70.0119 12.9629 68.7056 11.6569 67.0947 11.6569Z" fill="#212121"/>
<path d="M14.5854 5.82257C9.75213 5.82257 5.83398 9.74072 5.83398 14.574C5.83398 19.4074 9.75213 23.3255 14.5854 23.3255C19.4188 23.3255 23.3369 19.4074 23.3369 14.574C23.3369 9.74072 19.4188 5.82257 14.5854 5.82257ZM11.6683 14.574C11.6683 12.9629 12.9744 11.6569 14.5854 11.6569C16.1965 11.6569 17.5026 12.9629 17.5026 14.574C17.5026 16.1851 16.1965 17.4912 14.5854 17.4912C12.9744 17.4912 11.6683 16.1851 11.6683 14.574Z" fill="#212121"/>
<path d="M19.064 29.158C18.0711 30.8744 17.5029 32.867 17.5029 34.9923H5.83431V49.5799C5.83431 54.4136 9.75246 58.3314 14.5858 58.3314C15.8223 58.3314 16.9989 58.0752 18.0653 57.6126C18.4977 59.5461 19.1699 61.3885 20.0492 63.1079C18.3618 63.79 16.5176 64.1657 14.5858 64.1657C6.53029 64.1657 0 57.6353 0 49.5799V34.9923C0 31.7702 2.61214 29.158 5.83431 29.158H19.064Z" fill="#212121"/>
<path d="M61.6309 63.1079C63.3181 63.79 65.1624 64.1657 67.0941 64.1657C75.1495 64.1657 81.6799 57.6353 81.6799 49.5799V34.9923C81.6799 31.7702 79.0679 29.158 75.8456 29.158H62.6157C63.6087 30.8744 64.177 32.867 64.177 34.9924L75.8456 34.9923V49.5799C75.8456 54.4136 71.9273 58.3314 67.0941 58.3314C65.8578 58.3314 64.681 58.0752 63.6145 57.6126C63.1822 59.5461 62.5101 61.3885 61.6309 63.1079Z" fill="#212121"/>
<path d="M29.1712 29.158C25.9491 29.158 23.3369 31.7702 23.3369 34.9923V52.4971C23.3369 62.1639 31.1733 70 40.8398 70C50.5064 70 58.3428 62.1639 58.3428 52.4971V34.9923C58.3428 31.7702 55.7308 29.158 52.5085 29.158H29.1712ZM29.1712 34.9923H52.5085V52.4971C52.5085 58.9416 47.2842 64.1657 40.8398 64.1657C34.3954 64.1657 29.1712 58.9416 29.1712 52.4971V34.9923Z" fill="#212121"/>
</svg>
