<svg width="143" height="50" viewBox="0 0 143 50" fill="none" xmlns="http://www.w3.org/2000/svg">
<path d="M80.9316 16.0249V18.1988C80.9316 20.0622 80.4968 21.6771 79.6272 23.1056C78.7577 24.5342 77.5775 25.5901 76.0247 26.3976C74.4719 27.205 72.7328 27.5777 70.7452 27.5777C68.6955 27.5777 66.8943 27.1429 65.2794 26.2733C63.6645 25.4038 62.4844 24.2236 61.6769 22.6708C60.8695 21.118 60.3726 19.3168 60.3726 17.2671C60.3726 15.2174 60.8073 13.3541 61.6769 11.7392C62.5465 10.1243 63.7887 8.88202 65.4036 8.01245C67.0185 7.14289 68.8198 6.646 70.8695 6.646C72.6086 6.646 74.0993 6.95655 75.4657 7.51556C76.8322 8.13668 77.9502 8.94413 78.8198 10.0621C79.6893 11.1802 80.2483 12.4224 80.4968 13.851H75.59C75.2794 12.9193 74.6583 12.2361 73.7887 11.6771C72.9191 11.1802 71.8632 10.8696 70.6831 10.8696C68.8819 10.8696 67.5154 11.4286 66.5216 12.5466C65.5278 13.6646 64.9688 15.2174 64.9688 17.1429C64.9688 19.0684 65.4657 20.559 66.5216 21.6149C67.5775 22.6708 68.944 23.2298 70.6831 23.2298C71.9875 23.2298 73.1676 22.9193 74.0993 22.2982C75.031 21.6771 75.6521 20.8696 75.9005 19.8137H70.4968V15.9628H80.9316V16.0249Z" fill="#1B5173"/>
<path d="M92.5466 12.9813V16.7701C92.4224 16.7701 92.174 16.7701 91.8634 16.7701C90.6212 16.7701 89.6274 17.0806 88.9442 17.7639C88.2609 18.4471 87.9504 19.3167 87.9504 20.5589V27.1428H83.6025V13.0434H87.5777L87.8261 14.9688C88.0746 14.2856 88.4473 13.7887 89.0684 13.4782C89.6274 13.1676 90.3727 12.9813 91.1802 12.9813C91.6771 12.857 92.1119 12.9192 92.5466 12.9813Z" fill="#1B5173"/>
<path d="M94.9694 16.149C95.6526 15.031 96.5222 14.0993 97.7023 13.4782C98.8824 12.8571 100.249 12.5465 101.802 12.5465C103.354 12.5465 104.721 12.8571 105.901 13.4782C107.081 14.0993 108.013 15.031 108.634 16.149C109.255 17.267 109.628 18.5714 109.628 20.062C109.628 21.4906 109.317 22.795 108.634 23.913C107.951 25.031 107.081 25.9627 105.839 26.5838C104.659 27.2049 103.292 27.5155 101.802 27.5155C100.249 27.5155 98.8824 27.2049 97.7023 26.5838C96.5222 25.9627 95.5905 25.031 94.9694 23.913C94.2861 22.795 93.9756 21.4906 93.9756 20.062C93.9756 18.5714 94.2861 17.267 94.9694 16.149ZM99.3793 22.6086C100 23.2919 100.808 23.6024 101.802 23.6024C102.795 23.6024 103.603 23.2919 104.224 22.6086C104.845 21.9254 105.156 21.0558 105.156 19.9999C105.156 18.944 104.845 18.0745 104.224 17.3912C103.603 16.708 102.795 16.3974 101.802 16.3974C100.808 16.3974 99.9383 16.708 99.3172 17.3912C98.6961 18.0745 98.3855 18.944 98.3855 19.9999C98.4476 21.0558 98.7582 21.9254 99.3793 22.6086Z" fill="#1B5173"/>
<path d="M124.472 14.0993C125.404 15.1552 125.901 16.5838 125.901 18.385V27.1428H121.491V19.3788C121.491 17.4533 120.683 16.4595 119.131 16.4595C118.323 16.4595 117.64 16.708 117.267 17.2049C116.833 17.7018 116.646 18.385 116.646 19.2546V27.0806H112.298V12.9813H115.901L116.211 14.5341C116.646 13.9129 117.267 13.4161 118.013 13.0434C118.82 12.6707 119.628 12.4844 120.559 12.4844C122.236 12.5465 123.541 13.0434 124.472 14.0993Z" fill="#1B5173"/>
<path d="M140.559 26.149C139.255 27.0807 137.702 27.5154 135.901 27.5154C134.41 27.5154 133.106 27.2049 131.988 26.5838C130.87 25.9626 130 25.0931 129.379 23.913C128.758 22.7949 128.447 21.4906 128.447 19.9999C128.447 18.5092 128.758 17.2049 129.379 16.0248C130 14.9067 130.87 14.0372 131.988 13.4161C133.106 12.7949 134.41 12.4844 135.776 12.4844C137.143 12.4844 138.385 12.7949 139.503 13.3539C140.559 13.913 141.429 14.7204 142.05 15.7763C142.671 16.8322 142.919 18.0123 142.919 19.3167C142.919 20.062 142.857 20.6831 142.733 21.2421H132.733C132.795 22.0496 133.106 22.7328 133.665 23.2297C134.224 23.7266 134.969 23.9751 135.901 23.9751C136.584 23.9751 137.205 23.8508 137.702 23.6024C138.199 23.3539 138.571 22.9813 138.696 22.6086H142.981C142.671 24.0372 141.863 25.2173 140.559 26.149ZM138.447 18.385C138.447 17.7018 138.137 17.0807 137.64 16.708C137.143 16.2732 136.46 16.0869 135.652 16.0869C134.845 16.0869 134.162 16.2732 133.665 16.708C133.168 17.1428 132.857 17.7018 132.795 18.385H138.447Z" fill="#1B5173"/>
<path d="M61.9875 36.708C61.5527 36.4595 61.2421 36.149 61.0558 35.7142C60.8073 35.2794 60.6831 34.7825 60.6831 34.2856C60.6831 33.7266 60.8073 33.2297 60.9937 32.8571C61.2421 32.4223 61.5527 32.1117 61.9253 31.8633C62.298 31.6148 62.7949 31.4906 63.3539 31.4906C63.7887 31.4906 64.1614 31.5527 64.534 31.6769C64.9067 31.8012 65.1552 32.0496 65.4036 32.2981C65.6521 32.5465 65.7763 32.8571 65.9005 33.2297H65.093C64.9688 32.9192 64.7825 32.6707 64.4719 32.4223C64.1614 32.2359 63.7887 32.1117 63.3539 32.1117C62.9812 32.1117 62.6707 32.1738 62.3601 32.3602C62.0496 32.5465 61.8632 32.795 61.6769 33.1055C61.4906 33.4161 61.4284 33.7887 61.4284 34.2235C61.4284 34.6583 61.4906 35.031 61.6769 35.3415C61.8632 35.6521 62.0496 35.9005 62.3601 36.0869C62.6707 36.2732 62.9812 36.3353 63.3539 36.3353C63.7887 36.3353 64.1614 36.2111 64.4719 36.0248C64.7825 35.8384 64.9688 35.59 65.093 35.2173H65.9005C65.8384 35.59 65.652 35.9005 65.4657 36.149C65.2173 36.3974 64.9067 36.6459 64.5961 36.7701C64.2235 36.8943 63.8508 37.0185 63.416 37.0185C62.857 37.0185 62.4222 36.9564 61.9875 36.708Z" fill="#DB483B"/>
<path d="M75.8385 35.7142C75.59 36.149 75.2795 36.4595 74.8447 36.708C74.4099 36.9564 73.9751 37.0807 73.4161 37.0807C72.9192 37.0807 72.4223 36.9564 71.9875 36.708C71.5528 36.4595 71.2422 36.149 70.9938 35.7142C70.7453 35.2794 70.6211 34.8446 70.6211 34.2856C70.6211 33.7266 70.7453 33.2918 70.9938 32.8571C71.2422 32.4223 71.5528 32.1117 71.9875 31.8633C72.4223 31.6148 72.8571 31.4906 73.4161 31.4906C73.913 31.4906 74.4099 31.6148 74.8447 31.8633C75.2795 32.1117 75.59 32.4223 75.8385 32.8571C76.0869 33.2918 76.2112 33.7887 76.2112 34.2856C76.149 34.7825 76.0248 35.2794 75.8385 35.7142ZM75.1552 33.1676C74.9689 32.8571 74.7205 32.6086 74.4099 32.4223C74.0994 32.2359 73.7888 32.1738 73.4161 32.1738C73.0435 32.1738 72.6708 32.2359 72.3602 32.4223C72.0497 32.6086 71.8012 32.8571 71.6149 33.1676C71.4286 33.4782 71.3664 33.8508 71.3664 34.2235C71.3664 34.6583 71.4286 34.9689 71.6149 35.2794C71.8012 35.59 72.0497 35.8384 72.3602 36.0248C72.6708 36.2111 72.9813 36.2732 73.354 36.2732C73.7267 36.2732 74.0372 36.2111 74.3478 36.0248C74.6584 35.8384 74.9068 35.59 75.0931 35.2794C75.2795 34.9689 75.3416 34.5962 75.3416 34.2235C75.4037 33.8508 75.3416 33.5403 75.1552 33.1676Z" fill="#DB483B"/>
<path d="M84.2861 36.2733V36.9565H81.3047V31.6149H82.05V36.2733H84.2861Z" fill="#DB483B"/>
<path d="M92.1742 36.2733V36.9565H89.1929V31.6149H89.9382V36.2733H92.1742Z" fill="#DB483B"/>
<path d="M97.8883 32.2981V33.9751H100.249V34.5962H97.8883V36.2733H100.497V36.9565H97.2051V31.6149H100.497V32.2981H97.8883Z" fill="#DB483B"/>
<path d="M106.708 36.708C106.273 36.4595 105.963 36.149 105.776 35.7142C105.528 35.2794 105.466 34.7825 105.466 34.2856C105.466 33.7266 105.59 33.2297 105.776 32.8571C106.025 32.4223 106.335 32.1117 106.708 31.8633C107.081 31.6148 107.578 31.4906 108.137 31.4906C108.571 31.4906 108.944 31.5527 109.317 31.6769C109.689 31.8012 109.938 32.0496 110.186 32.2981C110.435 32.5465 110.559 32.8571 110.683 33.2297H109.876C109.752 32.9192 109.565 32.6707 109.255 32.4223C108.944 32.2359 108.571 32.1117 108.137 32.1117C107.764 32.1117 107.453 32.1738 107.143 32.3602C106.832 32.5465 106.646 32.795 106.46 33.1055C106.273 33.4161 106.211 33.7887 106.211 34.2235C106.211 34.6583 106.273 35.031 106.46 35.3415C106.646 35.6521 106.832 35.9005 107.143 36.0869C107.453 36.2732 107.764 36.3353 108.137 36.3353C108.571 36.3353 108.944 36.2111 109.255 36.0248C109.565 35.8384 109.752 35.59 109.876 35.2173H110.683C110.621 35.59 110.435 35.9005 110.248 36.149C110 36.3974 109.752 36.6459 109.379 36.7701C109.006 36.8943 108.634 37.0185 108.199 37.0185C107.578 37.0185 107.081 36.9564 106.708 36.708Z" fill="#DB483B"/>
<path d="M119.193 32.2981H117.578V36.9565H116.832V32.2981H115.155V31.6149H119.193V32.2981Z" fill="#DB483B"/>
<path d="M124.1 36.9565V31.6149H124.845V36.9565H124.1Z" fill="#DB483B"/>
<path d="M130.435 31.6148L131.304 33.8509L132.112 36.0248C132.174 35.8384 132.298 35.4658 132.485 34.9689C132.671 34.472 132.795 34.0993 132.919 33.7888L133.789 31.5527H134.534L132.485 36.8944H131.739L129.627 31.5527H130.435V31.6148Z" fill="#DB483B"/>
<path d="M140.187 32.2981V33.9751H142.547V34.5962H140.187V36.2733H142.795V36.9565H139.503V31.6149H142.795V32.2981H140.187Z" fill="#DB483B"/>
<path d="M24.3481 29.4411C26.5092 29.4411 28.2612 27.6891 28.2612 25.528C28.2612 23.3669 26.5092 21.615 24.3481 21.615C22.187 21.615 20.4351 23.3669 20.4351 25.528C20.4351 27.6891 22.187 29.4411 24.3481 29.4411Z" fill="#1B5173"/>
<path d="M24.6584 35.1553C30.0783 35.1553 34.4721 30.7616 34.4721 25.3416C34.4721 19.9217 30.0783 15.528 24.6584 15.528C19.2385 15.528 14.8447 19.9217 14.8447 25.3416C14.8447 30.7616 19.2385 35.1553 24.6584 35.1553Z" stroke="#DA483B" stroke-width="7" stroke-miterlimit="10"/>
<path d="M4.1615 25.9627C4.1615 13.9752 13.9131 4.2236 25.9006 4.2236C26.7081 4.2236 27.5155 4.28571 28.323 4.34783V0.124222C27.5155 0.0621099 26.7081 0 25.9006 0C11.6149 0 0 11.6149 0 25.9006C0 27.4534 0.124231 29.0062 0.43479 30.4969H4.65839C4.28572 29.0683 4.1615 27.5155 4.1615 25.9627Z" fill="#1B5173"/>
<path d="M49.6897 23.4783H41.6772V27.3913H49.6897V23.4783Z" fill="#1B5173"/>
<path d="M45.4657 27.3292C43.9129 37.764 34.8446 45.8385 23.975 45.8385C23.9129 45.8385 23.7887 45.8385 23.7266 45.8385V50C23.7887 50 23.9129 50 23.975 50C37.1427 50 48.0744 40.1243 49.6893 27.3292H45.4657Z" fill="#1B5173"/>
</svg>
