<svg width="19" height="15" viewBox="0 0 19 15" fill="none" xmlns="http://www.w3.org/2000/svg">
<path fill-rule="evenodd" clip-rule="evenodd" d="M2.24059 3.06015C2.26421 2.8279 2.17525 2.5988 2.00205 2.44292L0.238545 0.317273V0H5.71642L9.9504 9.28594L13.6727 0H18.8947V0.317273L17.3862 1.7635C17.2563 1.8627 17.1918 2.02567 17.2185 2.18706V12.8137C17.1918 12.9743 17.2563 13.1373 17.3862 13.2365L18.8592 14.6827V15H11.4494V14.6827L12.9759 13.2011C13.1255 13.0515 13.1255 13.0074 13.1255 12.7783V4.1891L8.88285 14.9654H8.30972L3.36955 4.1891V11.4116C3.32861 11.7147 3.42938 12.0209 3.64273 12.2398L5.62746 14.6473V14.9654H0V14.6473L1.98473 12.2398C2.19729 12.0202 2.29177 11.7123 2.24059 11.4116V3.06015Z" fill="black"/>
</svg>
