<svg width="70" height="70" viewBox="0 0 70 70" fill="none" xmlns="http://www.w3.org/2000/svg">
<path d="M19.25 49C20.6424 49 21.9777 48.4469 22.9623 47.4623C23.9469 46.4777 24.5 45.1424 24.5 43.75C24.5171 43.5754 24.5171 43.3996 24.5 43.225L34.265 33.46H35.07H35.875L41.51 39.095C41.51 39.095 41.51 39.27 41.51 39.375C41.51 40.7674 42.0631 42.1027 43.0477 43.0873C44.0323 44.0719 45.3676 44.625 46.76 44.625C48.1524 44.625 49.4877 44.0719 50.4723 43.0873C51.4569 42.1027 52.01 40.7674 52.01 39.375V39.095L64.75 26.25C65.7884 26.25 66.8034 25.9421 67.6667 25.3652C68.5301 24.7883 69.203 23.9684 69.6004 23.0091C69.9977 22.0498 70.1017 20.9942 69.8991 19.9758C69.6965 18.9574 69.1965 18.0219 68.4623 17.2877C67.7281 16.5535 66.7926 16.0534 65.7742 15.8509C64.7558 15.6483 63.7002 15.7523 62.7409 16.1496C61.7816 16.547 60.9617 17.2199 60.3848 18.0833C59.8079 18.9466 59.5 19.9616 59.5 21C59.4829 21.1746 59.4829 21.3504 59.5 21.525L46.865 34.16H46.305L40.25 28C40.25 26.6076 39.6969 25.2723 38.7123 24.2877C37.7277 23.3031 36.3924 22.75 35 22.75C33.6076 22.75 32.2723 23.3031 31.2877 24.2877C30.3031 25.2723 29.75 26.6076 29.75 28L19.25 38.5C17.8576 38.5 16.5223 39.0531 15.5377 40.0377C14.5531 41.0223 14 42.3576 14 43.75C14 45.1424 14.5531 46.4777 15.5377 47.4623C16.5223 48.4469 17.8576 49 19.25 49ZM66.5 63H7V3.5C7 2.57174 6.63125 1.6815 5.97487 1.02513C5.3185 0.368749 4.42826 0 3.5 0C2.57174 0 1.6815 0.368749 1.02513 1.02513C0.368749 1.6815 0 2.57174 0 3.5V66.5C0 67.4283 0.368749 68.3185 1.02513 68.9749C1.6815 69.6313 2.57174 70 3.5 70H66.5C67.4283 70 68.3185 69.6313 68.9749 68.9749C69.6313 68.3185 70 67.4283 70 66.5C70 65.5717 69.6313 64.6815 68.9749 64.0251C68.3185 63.3687 67.4283 63 66.5 63Z" fill="black"/>
</svg>
